<?xml version="1.0" encoding="UTF-8" standalone="no"?><!DOCTYPE svg PUBLIC "-//W3C//DTD SVG 1.1//EN" "http://www.w3.org/Graphics/SVG/1.1/DTD/svg11.dtd"><svg width="100%" height="100%" viewBox="0 0 384 384" version="1.1" xmlns="http://www.w3.org/2000/svg" xmlns:xlink="http://www.w3.org/1999/xlink" xml:space="preserve" xmlns:serif="http://www.serif.com/" style="fill-rule:evenodd;clip-rule:evenodd;stroke-linejoin:round;stroke-miterlimit:2;"><rect id="Artboard2" x="0" y="0" width="384" height="384" style="fill:none;"/><g id="white"><path id="cog" d="M45.427,233.548c-4.817,-0.506 -33.451,-4.005 -33.427,-15.74c0.026,-12.381 0.042,-20.659 0.052,-25.822c-0.01,-5.164 -0.026,-13.441 -0.052,-25.823c-0.024,-11.735 28.61,-15.234 33.427,-15.739c3.259,-11.5 7.836,-22.449 13.558,-32.672c-2.999,-3.7 -20.854,-26.49 -12.523,-34.786c8.773,-8.737 14.637,-14.579 18.295,-18.223c3.645,-3.658 9.486,-9.522 18.223,-18.296c8.296,-8.33 31.086,9.524 34.787,12.524c10.223,-5.722 21.172,-10.3 32.673,-13.559c0.511,-4.86 4.014,-33.436 15.738,-33.412c12.381,0.026 20.658,0.042 25.822,0.052c5.164,-0.01 13.441,-0.026 25.822,-0.052c11.724,-0.024 15.227,28.552 15.738,33.412c12.015,3.405 23.427,8.249 34.039,14.333c6.167,-4.807 25.842,-19.05 33.421,-11.439c8.737,8.773 14.578,14.637 18.223,18.295c3.658,3.645 9.522,9.486 18.295,18.223c7.882,7.848 -7.674,28.67 -11.915,34.026c5.439,9.908 9.807,20.484 12.95,31.574c4.817,0.505 33.451,4.004 33.427,15.739c-0.026,12.382 -0.042,20.659 -0.052,25.823c0.01,5.163 0.026,13.441 0.052,25.822c0.024,11.735 -28.61,15.234 -33.427,15.74c-3.259,11.5 -7.836,22.448 -13.558,32.671c2.999,3.7 20.854,26.491 12.523,34.787c-8.773,8.737 -14.637,14.578 -18.295,18.222c-3.645,3.658 -9.486,9.523 -18.223,18.296c-8.296,8.331 -31.086,-9.524 -34.787,-12.524c-10.222,5.722 -21.17,10.299 -32.67,13.558c-0.5,4.774 -3.994,33.466 -15.741,33.442c-12.381,-0.026 -20.658,-0.042 -25.822,-0.052c-5.164,0.01 -13.441,0.026 -25.822,0.052c-11.747,0.024 -15.241,-28.668 -15.741,-33.442c-12.371,-3.506 -24.103,-8.537 -34.981,-14.877l2.821,2.759c0,-0 -26.256,22.021 -35.297,12.942c-8.737,-8.773 -14.578,-14.637 -18.223,-18.295c-3.658,-3.645 -9.522,-9.486 -18.295,-18.223c-9.079,-9.041 12.942,-35.297 12.942,-35.297l0.841,0.859c-6.312,-10.849 -11.323,-22.546 -14.818,-34.878Zm146.573,-162.232c-66.6,-0 -120.67,54.07 -120.67,120.67c-0,66.599 54.07,120.67 120.67,120.67c66.6,-0 120.67,-54.071 120.67,-120.67c0,-66.6 -54.07,-120.67 -120.67,-120.67Z" style="fill:#fff;"/><g id="ship"><path d="M184.5,98.175c0,10.125 -0.225,12.975 -0.975,13.275c-0.6,0.225 -5.85,-0.3 -11.7,-1.2c-5.85,-0.825 -11.925,-1.5 -13.575,-1.5l-2.85,-0l1.425,3c4.575,9.375 4.8,21.3 0.675,32.025c-1.275,3.45 -2.7,6.375 -3.075,6.675c-0.375,0.225 -0.675,0.75 -0.675,1.2c-0,0.45 0.675,0.3 1.725,-0.3c3.675,-2.475 22.875,-5.85 27.075,-4.8c1.875,0.45 1.95,0.675 1.95,6.45l0,6l-2.4,-0.075c-1.35,-0 -8.4,-0.75 -15.6,-1.725c-7.2,-0.9 -13.2,-1.425 -13.35,-1.2c-0.075,0.3 0.675,2.775 1.725,5.625c5.775,15.225 5.25,36.15 -1.2,49.575c-1.575,3.45 -2.925,6.375 -2.925,6.6c0,0.675 5.625,2.25 7.5,2.1c1.05,-0.075 3.9,-0.825 6.375,-1.65c4.5,-1.425 15.825,-3.75 18.45,-3.75c1.35,-0 1.425,0.75 1.425,12.825l0,12.9l-5.775,-0.45c-8.775,-0.675 -13.125,-2.1 -17.25,-5.55c-5.7,-4.8 -2.4,-3.975 -36.975,-9.225c-5.55,-0.825 -12.3,-1.725 -14.925,-2.025l-4.8,-0.45l0.45,3.675c0.225,2.025 0.975,5.4 1.65,7.575c0.975,3.225 1.65,4.125 3.75,5.175c3.675,1.725 4.05,2.325 6.75,11.7c1.35,4.65 2.7,9.075 3,9.825c0.525,1.275 0.15,1.35 -6.3,1.125c-3.75,-0.15 -6.825,-0 -6.825,0.3c-0,0.225 1.65,1.95 3.6,3.75c5.25,4.65 10.05,6.9 15.9,7.2c4.425,0.3 5.775,-0.075 13.875,-3.225c8.4,-3.375 9.45,-3.6 15.75,-3.6c6,0 7.8,0.375 15.675,3.15c11.475,3.975 14.7,3.975 24.825,0.375c5.925,-2.1 9,-2.7 14.625,-3c6.75,-0.375 7.5,-0.225 14.625,2.325c17.025,6.15 17.925,6.375 22.875,6.375c6.525,0 11.625,-1.875 15.375,-5.7c2.925,-3 4.875,-5.25 4.875,-5.7c0,-0.15 -3.375,-0.225 -7.425,-0.225c-4.125,0 -7.65,-0.225 -7.95,-0.525c-0.225,-0.225 0.15,-1.95 0.975,-3.75c2.7,-5.85 3.975,-9.15 6.9,-17.1c3.375,-9.375 6.9,-17.025 8.775,-19.2c0.75,-0.825 3.825,-3.15 6.825,-5.1c3,-1.95 5.7,-4.05 5.925,-4.575c0.45,-1.2 -1.05,-6.15 -2.1,-6.75c-0.375,-0.225 -11.4,3.825 -24.45,9.075c-13.125,5.175 -26.025,10.275 -28.725,11.325c-2.7,1.05 -8.4,3.675 -12.75,5.85c-7.875,3.9 -15.6,6.375 -20.1,6.375l-2.4,0l0,-25.5l6.6,0c6.375,0 18.9,2.175 21.9,3.75c1.8,0.975 2.25,0.225 4.425,-7.5c1.05,-3.525 1.8,-8.85 2.1,-14.25c0.375,-7.275 0.15,-9.6 -1.125,-14.85c-1.5,-5.925 -5.25,-14.4 -7.2,-16.5c-0.525,-0.525 -4.95,-1.425 -9.9,-2.025c-4.875,-0.525 -10.725,-1.275 -12.825,-1.575l-3.975,-0.525l-0,-5.85c-0,-5.7 0.075,-5.925 1.725,-5.925c3.45,0 13.725,3.075 18.825,5.625c3.75,1.875 5.4,2.325 5.775,1.725c1.875,-3.075 3,-27.525 1.575,-35.475c-0.525,-2.925 -0.6,-3 -4.275,-3.525c-2.1,-0.3 -8.25,-1.275 -13.65,-2.175l-9.975,-1.65l0,-6.525l4.35,0.45c2.325,0.225 5.625,0.75 7.275,1.125c2.7,0.525 4.125,0.375 3.3,-0.375c-0.75,-0.675 -11.7,-7.8 -13.125,-8.55c-1.35,-0.75 -1.65,-1.725 -1.95,-5.775c-0.375,-5.625 -1.275,-6.975 -5.325,-7.65l-2.775,-0.45l-0,12.9Z" style="fill:#fff;fill-rule:nonzero;"/><path d="M233.85,145.95c0.375,0.825 1.575,4.125 2.7,7.425c5.625,17.4 6.075,39.825 1.05,55.725c-0.375,1.35 -0.6,2.625 -0.45,2.85c0.225,0.15 4.05,-1.425 8.55,-3.6l8.175,-3.975l10.125,-0.45c5.55,-0.3 10.2,-0.525 10.35,-0.6c0.075,-0 0.15,-0.675 0.15,-1.425c0,-4.2 -19.8,-33.225 -34.2,-50.025c-5.625,-6.675 -7.95,-8.775 -6.45,-5.925Z" style="fill:#fff;fill-rule:nonzero;"/><path d="M122.625,146.925c-0.225,0.45 0.075,1.725 0.675,2.925c2.55,4.875 3.375,18 1.875,28.125c-1.2,8.25 -4.725,18.9 -8.925,27c-2.625,5.1 -3.45,7.425 -2.85,7.65c2.85,1.05 27.3,3.825 28.125,3.225c1.65,-1.275 5.475,-8.775 7.425,-14.625c1.425,-4.275 2.1,-8.025 2.4,-13.875c0.675,-14.25 -2.1,-22.5 -10.275,-30.675c-6,-5.925 -17.1,-11.85 -18.45,-9.75Z" style="fill:#fff;fill-rule:nonzero;"/><path d="M210,278.775c-1.05,0.15 -5.925,1.725 -10.875,3.45c-11.775,4.05 -15.6,4.125 -27,0.225c-11.475,-3.9 -18.6,-4.35 -27.825,-1.725c-3.675,1.05 -8.025,2.175 -9.675,2.55l-2.925,0.675l2.55,1.575c9.45,5.775 22.875,11.025 35.325,13.875c6.825,1.5 9.675,1.725 22.8,1.65c13.575,-0 15.75,-0.225 22.575,-1.95c9.9,-2.55 17.25,-5.25 24.3,-8.925c9.375,-4.875 9.375,-4.725 1.2,-5.775c-3.9,-0.45 -10.275,-1.875 -14.1,-3.075c-7.125,-2.25 -13.05,-3.15 -16.35,-2.55Z" style="fill:#fff;fill-rule:nonzero;"/></g></g></svg>